<svg xmlns="http://www.w3.org/2000/svg" width="100" height="82.5" viewBox="0 0 960 792">
  <path class="armadillo" fill="#fff" d="M198.465 410.65s-29.91 7.478-39.524 94.004c0 0-2.27 8.142-7.07 12.95-4.8 4.807-31.64 24.436-31.64 40.457 0 0 3.61 11.22 28.04 8.42 24.44-2.8 35.25-22.83 36.86-24.83 1.6-2 18.03-6.41 32.85-8.41 14.83-2 50.08-21.63 55.28-28.04 5.21-6.41 14.02-77.31-25.63-88.93-39.656-11.61-49.136-5.6-49.136-5.6zm30.003-18.83c.396 4.938-46.467 8.812-52.876 0-6.41-8.813-10.014-13.22-12.017-24.436s-2.403-21.23-4.807-24.034c-2.403-2.804-6.41-11.617 8.812-8.413 15.222 3.205 35.797 6.94 44.865 23.635 8.503 15.653 15.222 23.233 16.023 33.247zM336.53 520.81c-1.228 2.103-16.075 18.613-35.65 20.027-12.53.907-16.28 3.378-14.92 6.582 1.36 3.2 3.918 5.52 6.322 5.52s5.494.11 8.62-.63c2.786-.66 7.186-1.47 5.584 1.74-1.602 3.2-5.918 6.73-7.61 10.01-1.943 3.77-2.003 6.01-1.202 7.21.8 1.2 4.738 3.59 8.378 2.16 3.537-1.4 12.62-5.79 40.164-11.36 4.865-.98 10.744-4.03 12.747-8.43 2.002-4.41 5.208-9.62 6.01-11.62.8-2.01 3.204-6.41 4.005-10.02.8-3.608 5.607-8.016 0-9.216-5.608-1.2-14.42-1.6-18.828-2-4.406-.4-12.484-1.948-13.62 0zm81.318-32.798s-52.876 46.917-99.344 0c-46.467-46.918-12.018-73.757-71.704-118.622 0 0-8.005-4.808-2-14.822 6.006-10.014 57.28-73.306 57.28-73.306s8.27-8.733 23.233-3.204c13.675 5.053 59.167 5.878 88.527 110.96 15.223 54.48 7.213 88.628 4.008 98.994zm-74.745-226.116s63.128 29.382 83.158 121.514c20.03 92.133 2.41 96.14 11.22 96.14 8.82 0 16.83-7.746 29.65-14.422 12.82-6.675 18.7-8.81 26.44-9.88 7.74-1.07 24.57-2.936 32.58-3.204 8.01-.27 7.74-2.404 9.61-8.812 1.88-6.41 50.48-138.334 22.71-194.416 0 0-7.48-12.285-28.31-17.09-20.83-4.808-80.11-23.502-177.32 19.227 0 0-16.39 4.895-9.72 10.943zm234.042-11.478s14.1 97.79-20.83 179.458c0 0-3.348 8.682-6.944 14.956-2.59 4.528-3.59 6.65-1.05 7.313 3.25.85 6.82-.013 8.13-.037 1.8-.03 50.08 1.803 50.88 1.803.8 0 6.21 1.61 8.91-6.31 2.71-7.91 44.77-85.6 47.97-106.54 3.21-20.94-2.5-25.34-8.21-29.85-5.71-4.5-64.46-63.69-78.85-60.78zm92.267 121.375s-18.026 52.075-30.043 68.098c-12.02 16.03 34.85 28.05 52.87 33.65 18.02 5.61 55.68 18.43 68.1 20.03 12.41 1.61 53.67 7.61 61.29 7.61 7.61 0 18.82-3.6 11.21-10.41-7.61-6.81-127.29-64.43-147.82-108.15l-3.21-7.21s-4.41-12.81-12.42-3.6zm-56.3 101.67s13.846 39.12 4.55 53.817c-9.295 14.696-28.803 22.197-32.258 24.498-3.463 2.297-5.008 3.192-8.96 3.16-3.953-.034-5.7-3.408-4.73-6.086.974-2.68-.307-7.28-.307-7.28s-22.477-2.73-24.586-3.73c-2.1-1.004-6.93-4.564-3.35-7.69 3.59-3.13 21.19-18.54 25.83-21.23 4.65-2.688 2.91-11.71 2.9-15.388-.01-3.677-4.53-14.817-4.53-14.817s-3.87-9.912 8.98-10.787c12.85-.877 36.47 5.532 36.47 5.532z"/>
</svg>
